<mxfile host="app.diagrams.net" modified="2024-04-14T16:12:09.554Z" agent="Mozilla/5.0 (Windows NT 10.0; Win64; x64) AppleWebKit/537.36 (KHTML, like Gecko) Chrome/120.0.0.0 YaBrowser/24.1.0.0 Safari/537.36" etag="jkUxNeeae0IbPLgcwMY4" version="24.2.5" type="device">
  <diagram name="Страница — 1" id="C3ocng0XXql7ZPbnZEg3">
    <mxGraphModel dx="1231" dy="1736" grid="1" gridSize="10" guides="1" tooltips="1" connect="1" arrows="1" fold="1" page="1" pageScale="1" pageWidth="827" pageHeight="1169" math="0" shadow="0">
      <root>
        <mxCell id="0" />
        <mxCell id="1" parent="0" />
        <mxCell id="pg2_7ebm1C0G22UTHCx4-1" value="Пользователь" style="shape=umlActor;verticalLabelPosition=bottom;verticalAlign=top;html=1;outlineConnect=0;" parent="1" vertex="1">
          <mxGeometry x="400" y="270" width="30" height="60" as="geometry" />
        </mxCell>
        <mxCell id="pg2_7ebm1C0G22UTHCx4-6" value="Управление профилем" style="ellipse;whiteSpace=wrap;html=1;" parent="1" vertex="1">
          <mxGeometry x="200" y="290" width="120" height="80" as="geometry" />
        </mxCell>
        <mxCell id="pg2_7ebm1C0G22UTHCx4-7" value="&amp;lt;&amp;lt;include&amp;gt;&amp;gt;" style="html=1;verticalAlign=bottom;labelBackgroundColor=none;endArrow=open;endFill=0;dashed=1;rounded=0;exitX=0;exitY=0;exitDx=0;exitDy=0;" parent="1" source="pg2_7ebm1C0G22UTHCx4-6" target="pg2_7ebm1C0G22UTHCx4-9" edge="1">
          <mxGeometry x="-0.0166" width="160" relative="1" as="geometry">
            <mxPoint x="120" y="370" as="sourcePoint" />
            <mxPoint x="150" y="200" as="targetPoint" />
            <mxPoint as="offset" />
          </mxGeometry>
        </mxCell>
        <mxCell id="pg2_7ebm1C0G22UTHCx4-8" value="" style="endArrow=none;html=1;rounded=0;exitX=0;exitY=0.3333333333333333;exitDx=0;exitDy=0;exitPerimeter=0;entryX=1;entryY=0.5;entryDx=0;entryDy=0;" parent="1" source="pg2_7ebm1C0G22UTHCx4-1" target="pg2_7ebm1C0G22UTHCx4-6" edge="1">
          <mxGeometry width="50" height="50" relative="1" as="geometry">
            <mxPoint x="390" y="320" as="sourcePoint" />
            <mxPoint x="440" y="270" as="targetPoint" />
          </mxGeometry>
        </mxCell>
        <mxCell id="pg2_7ebm1C0G22UTHCx4-9" value="Смена пароля" style="ellipse;whiteSpace=wrap;html=1;" parent="1" vertex="1">
          <mxGeometry x="90" y="230" width="120" height="80" as="geometry" />
        </mxCell>
        <mxCell id="pg2_7ebm1C0G22UTHCx4-10" value="Смена логина" style="ellipse;whiteSpace=wrap;html=1;" parent="1" vertex="1">
          <mxGeometry x="40" y="310" width="120" height="80" as="geometry" />
        </mxCell>
        <mxCell id="pg2_7ebm1C0G22UTHCx4-11" value="&amp;lt;&amp;lt;include&amp;gt;&amp;gt;" style="html=1;verticalAlign=bottom;labelBackgroundColor=none;endArrow=open;endFill=0;dashed=1;rounded=0;exitX=0;exitY=0.5;exitDx=0;exitDy=0;entryX=1;entryY=0.5;entryDx=0;entryDy=0;" parent="1" source="pg2_7ebm1C0G22UTHCx4-6" target="pg2_7ebm1C0G22UTHCx4-10" edge="1">
          <mxGeometry x="0.0032" width="160" relative="1" as="geometry">
            <mxPoint x="218" y="262" as="sourcePoint" />
            <mxPoint x="179" y="231" as="targetPoint" />
            <mxPoint as="offset" />
          </mxGeometry>
        </mxCell>
        <mxCell id="pg2_7ebm1C0G22UTHCx4-13" value="Смена цветовой палитры" style="ellipse;whiteSpace=wrap;html=1;" parent="1" vertex="1">
          <mxGeometry x="100" y="390" width="120" height="80" as="geometry" />
        </mxCell>
        <mxCell id="pg2_7ebm1C0G22UTHCx4-15" value="Смена языка" style="ellipse;whiteSpace=wrap;html=1;" parent="1" vertex="1">
          <mxGeometry x="220" y="420" width="120" height="80" as="geometry" />
        </mxCell>
        <mxCell id="pg2_7ebm1C0G22UTHCx4-17" value="Выход из приложения" style="ellipse;whiteSpace=wrap;html=1;" parent="1" vertex="1">
          <mxGeometry x="354" y="360" width="120" height="80" as="geometry" />
        </mxCell>
        <mxCell id="pg2_7ebm1C0G22UTHCx4-19" value="" style="endArrow=none;html=1;rounded=0;exitX=0.5;exitY=0;exitDx=0;exitDy=0;entryX=0;entryY=1;entryDx=0;entryDy=0;entryPerimeter=0;" parent="1" source="pg2_7ebm1C0G22UTHCx4-17" target="pg2_7ebm1C0G22UTHCx4-1" edge="1">
          <mxGeometry width="50" height="50" relative="1" as="geometry">
            <mxPoint x="440" y="400" as="sourcePoint" />
            <mxPoint x="390" y="400" as="targetPoint" />
          </mxGeometry>
        </mxCell>
        <mxCell id="pg2_7ebm1C0G22UTHCx4-20" value="Управление ежедневником" style="ellipse;whiteSpace=wrap;html=1;" parent="1" vertex="1">
          <mxGeometry x="355" y="150" width="120" height="80" as="geometry" />
        </mxCell>
        <mxCell id="pg2_7ebm1C0G22UTHCx4-21" value="" style="endArrow=none;html=1;rounded=0;exitX=0.5;exitY=0;exitDx=0;exitDy=0;exitPerimeter=0;" parent="1" source="pg2_7ebm1C0G22UTHCx4-1" target="pg2_7ebm1C0G22UTHCx4-20" edge="1">
          <mxGeometry width="50" height="50" relative="1" as="geometry">
            <mxPoint x="390" y="220" as="sourcePoint" />
            <mxPoint x="440" y="170" as="targetPoint" />
          </mxGeometry>
        </mxCell>
        <mxCell id="pg2_7ebm1C0G22UTHCx4-22" value="&amp;lt;&amp;lt;include&amp;gt;&amp;gt;" style="html=1;verticalAlign=bottom;labelBackgroundColor=none;endArrow=open;endFill=0;dashed=1;rounded=0;exitX=0;exitY=0;exitDx=0;exitDy=0;" parent="1" source="pg2_7ebm1C0G22UTHCx4-20" target="pg2_7ebm1C0G22UTHCx4-23" edge="1">
          <mxGeometry x="0.0032" width="160" relative="1" as="geometry">
            <mxPoint x="355" y="162" as="sourcePoint" />
            <mxPoint x="257" y="100" as="targetPoint" />
            <mxPoint as="offset" />
          </mxGeometry>
        </mxCell>
        <mxCell id="pg2_7ebm1C0G22UTHCx4-23" value="Управление задачами" style="ellipse;whiteSpace=wrap;html=1;" parent="1" vertex="1">
          <mxGeometry x="210" y="130" width="120" height="80" as="geometry" />
        </mxCell>
        <mxCell id="pg2_7ebm1C0G22UTHCx4-24" value="&amp;lt;&amp;lt;include&amp;gt;&amp;gt;" style="html=1;verticalAlign=bottom;labelBackgroundColor=none;endArrow=open;endFill=0;dashed=1;rounded=0;exitX=0.5;exitY=0;exitDx=0;exitDy=0;" parent="1" source="pg2_7ebm1C0G22UTHCx4-20" target="pg2_7ebm1C0G22UTHCx4-25" edge="1">
          <mxGeometry x="0.0032" width="160" relative="1" as="geometry">
            <mxPoint x="526" y="142" as="sourcePoint" />
            <mxPoint x="410" y="80" as="targetPoint" />
            <mxPoint as="offset" />
          </mxGeometry>
        </mxCell>
        <mxCell id="pg2_7ebm1C0G22UTHCx4-25" value="Управление записями" style="ellipse;whiteSpace=wrap;html=1;" parent="1" vertex="1">
          <mxGeometry x="330" y="30" width="120" height="80" as="geometry" />
        </mxCell>
        <mxCell id="pg2_7ebm1C0G22UTHCx4-26" value="&amp;lt;&amp;lt;include&amp;gt;&amp;gt;" style="html=1;verticalAlign=bottom;labelBackgroundColor=none;endArrow=open;endFill=0;dashed=1;rounded=0;exitX=0.908;exitY=0.188;exitDx=0;exitDy=0;exitPerimeter=0;" parent="1" source="pg2_7ebm1C0G22UTHCx4-20" target="pg2_7ebm1C0G22UTHCx4-27" edge="1">
          <mxGeometry x="-0.0062" width="160" relative="1" as="geometry">
            <mxPoint x="475" y="162" as="sourcePoint" />
            <mxPoint x="566.04" y="80" as="targetPoint" />
            <mxPoint as="offset" />
          </mxGeometry>
        </mxCell>
        <mxCell id="pg2_7ebm1C0G22UTHCx4-27" value="Управление пространствами" style="ellipse;whiteSpace=wrap;html=1;" parent="1" vertex="1">
          <mxGeometry x="470" y="20" width="120" height="80" as="geometry" />
        </mxCell>
        <mxCell id="pg2_7ebm1C0G22UTHCx4-28" value="&amp;lt;&amp;lt;include&amp;gt;&amp;gt;" style="html=1;verticalAlign=bottom;labelBackgroundColor=none;endArrow=open;endFill=0;dashed=1;rounded=0;exitX=0.025;exitY=0.325;exitDx=0;exitDy=0;exitPerimeter=0;" parent="1" source="pg2_7ebm1C0G22UTHCx4-23" target="pg2_7ebm1C0G22UTHCx4-29" edge="1">
          <mxGeometry x="0.0032" width="160" relative="1" as="geometry">
            <mxPoint x="196" y="102" as="sourcePoint" />
            <mxPoint x="80" y="40" as="targetPoint" />
            <mxPoint as="offset" />
          </mxGeometry>
        </mxCell>
        <mxCell id="pg2_7ebm1C0G22UTHCx4-29" value="Создание задачи" style="ellipse;whiteSpace=wrap;html=1;" parent="1" vertex="1">
          <mxGeometry x="50" y="130" width="120" height="80" as="geometry" />
        </mxCell>
        <mxCell id="pg2_7ebm1C0G22UTHCx4-30" value="&amp;lt;&amp;lt;include&amp;gt;&amp;gt;" style="html=1;verticalAlign=bottom;labelBackgroundColor=none;endArrow=open;endFill=0;dashed=1;rounded=0;exitX=0.208;exitY=0.113;exitDx=0;exitDy=0;exitPerimeter=0;" parent="1" source="pg2_7ebm1C0G22UTHCx4-23" target="pg2_7ebm1C0G22UTHCx4-31" edge="1">
          <mxGeometry x="0.0032" width="160" relative="1" as="geometry">
            <mxPoint x="280" y="16" as="sourcePoint" />
            <mxPoint x="180" y="-20" as="targetPoint" />
            <mxPoint as="offset" />
          </mxGeometry>
        </mxCell>
        <mxCell id="pg2_7ebm1C0G22UTHCx4-31" value="Редактирование задачи" style="ellipse;whiteSpace=wrap;html=1;" parent="1" vertex="1">
          <mxGeometry x="50" y="50" width="120" height="80" as="geometry" />
        </mxCell>
        <mxCell id="pg2_7ebm1C0G22UTHCx4-32" value="&amp;lt;&amp;lt;include&amp;gt;&amp;gt;" style="html=1;verticalAlign=bottom;labelBackgroundColor=none;endArrow=open;endFill=0;dashed=1;rounded=0;exitX=0.367;exitY=0.038;exitDx=0;exitDy=0;exitPerimeter=0;" parent="1" source="pg2_7ebm1C0G22UTHCx4-23" target="pg2_7ebm1C0G22UTHCx4-33" edge="1">
          <mxGeometry x="0.0032" width="160" relative="1" as="geometry">
            <mxPoint x="414" y="-34" as="sourcePoint" />
            <mxPoint x="314" y="-70" as="targetPoint" />
            <mxPoint as="offset" />
          </mxGeometry>
        </mxCell>
        <mxCell id="pg2_7ebm1C0G22UTHCx4-33" value="Удаление задачи" style="ellipse;whiteSpace=wrap;html=1;" parent="1" vertex="1">
          <mxGeometry x="50" y="-30" width="120" height="80" as="geometry" />
        </mxCell>
        <mxCell id="pg2_7ebm1C0G22UTHCx4-34" value="&amp;lt;&amp;lt;include&amp;gt;&amp;gt;" style="html=1;verticalAlign=bottom;labelBackgroundColor=none;endArrow=open;endFill=0;dashed=1;rounded=0;exitX=0.5;exitY=0;exitDx=0;exitDy=0;" parent="1" source="pg2_7ebm1C0G22UTHCx4-23" target="pg2_7ebm1C0G22UTHCx4-35" edge="1">
          <mxGeometry x="0.0032" width="160" relative="1" as="geometry">
            <mxPoint x="380" y="-44" as="sourcePoint" />
            <mxPoint x="280" y="-80" as="targetPoint" />
            <mxPoint as="offset" />
          </mxGeometry>
        </mxCell>
        <mxCell id="pg2_7ebm1C0G22UTHCx4-35" value="Просмотр списка задач" style="ellipse;whiteSpace=wrap;html=1;" parent="1" vertex="1">
          <mxGeometry x="50" y="-110" width="120" height="80" as="geometry" />
        </mxCell>
        <mxCell id="pg2_7ebm1C0G22UTHCx4-36" value="&amp;lt;&amp;lt;include&amp;gt;&amp;gt;" style="html=1;verticalAlign=bottom;labelBackgroundColor=none;endArrow=open;endFill=0;dashed=1;rounded=0;exitX=0.658;exitY=0.038;exitDx=0;exitDy=0;exitPerimeter=0;" parent="1" source="pg2_7ebm1C0G22UTHCx4-23" target="pg2_7ebm1C0G22UTHCx4-37" edge="1">
          <mxGeometry x="0.0032" width="160" relative="1" as="geometry">
            <mxPoint x="273.03999999999996" y="47.51999999999997" as="sourcePoint" />
            <mxPoint x="290" y="-137.52" as="targetPoint" />
            <mxPoint as="offset" />
          </mxGeometry>
        </mxCell>
        <mxCell id="pg2_7ebm1C0G22UTHCx4-37" value="Поиск задач по заданным критериям" style="ellipse;whiteSpace=wrap;html=1;" parent="1" vertex="1">
          <mxGeometry x="130" y="-170" width="120" height="80" as="geometry" />
        </mxCell>
        <mxCell id="pg2_7ebm1C0G22UTHCx4-38" value="&amp;lt;&amp;lt;include&amp;gt;&amp;gt;" style="html=1;verticalAlign=bottom;labelBackgroundColor=none;endArrow=open;endFill=0;dashed=1;rounded=0;exitX=0;exitY=0;exitDx=0;exitDy=0;" parent="1" source="pg2_7ebm1C0G22UTHCx4-25" target="pg2_7ebm1C0G22UTHCx4-39" edge="1">
          <mxGeometry x="0.0032" width="160" relative="1" as="geometry">
            <mxPoint x="340" y="45" as="sourcePoint" />
            <mxPoint x="400" y="-21.72" as="targetPoint" />
            <mxPoint as="offset" />
          </mxGeometry>
        </mxCell>
        <mxCell id="pg2_7ebm1C0G22UTHCx4-39" value="Создание записи" style="ellipse;whiteSpace=wrap;html=1;" parent="1" vertex="1">
          <mxGeometry x="234" y="-100" width="120" height="80" as="geometry" />
        </mxCell>
        <mxCell id="pg2_7ebm1C0G22UTHCx4-43" value="&amp;lt;&amp;lt;include&amp;gt;&amp;gt;" style="html=1;verticalAlign=bottom;labelBackgroundColor=none;endArrow=open;endFill=0;dashed=1;rounded=0;exitX=0.5;exitY=0;exitDx=0;exitDy=0;" parent="1" source="pg2_7ebm1C0G22UTHCx4-25" target="pg2_7ebm1C0G22UTHCx4-44" edge="1">
          <mxGeometry x="0.0032" width="160" relative="1" as="geometry">
            <mxPoint x="424" y="22" as="sourcePoint" />
            <mxPoint x="476" y="-41.72" as="targetPoint" />
            <mxPoint as="offset" />
            <Array as="points">
              <mxPoint x="390" y="-10" />
            </Array>
          </mxGeometry>
        </mxCell>
        <mxCell id="pg2_7ebm1C0G22UTHCx4-44" value="Удаление записи" style="ellipse;whiteSpace=wrap;html=1;" parent="1" vertex="1">
          <mxGeometry x="234" y="-222" width="120" height="80" as="geometry" />
        </mxCell>
        <mxCell id="pg2_7ebm1C0G22UTHCx4-45" value="&amp;lt;&amp;lt;include&amp;gt;&amp;gt;" style="html=1;verticalAlign=bottom;labelBackgroundColor=none;endArrow=open;endFill=0;dashed=1;rounded=0;exitX=0.6;exitY=0.013;exitDx=0;exitDy=0;entryX=0.5;entryY=1;entryDx=0;entryDy=0;exitPerimeter=0;" parent="1" source="pg2_7ebm1C0G22UTHCx4-25" target="pg2_7ebm1C0G22UTHCx4-46" edge="1">
          <mxGeometry x="0.0999" y="-9" width="160" relative="1" as="geometry">
            <mxPoint x="494" y="-90" as="sourcePoint" />
            <mxPoint x="460" y="-154" as="targetPoint" />
            <mxPoint as="offset" />
            <Array as="points">
              <mxPoint x="390" y="-90" />
            </Array>
          </mxGeometry>
        </mxCell>
        <mxCell id="pg2_7ebm1C0G22UTHCx4-46" value="Редактирование записи" style="ellipse;whiteSpace=wrap;html=1;" parent="1" vertex="1">
          <mxGeometry x="330" y="-170" width="120" height="80" as="geometry" />
        </mxCell>
        <mxCell id="pg2_7ebm1C0G22UTHCx4-47" value="&amp;lt;&amp;lt;include&amp;gt;&amp;gt;" style="html=1;verticalAlign=bottom;labelBackgroundColor=none;endArrow=open;endFill=0;dashed=1;rounded=0;exitX=0.7;exitY=0.05;exitDx=0;exitDy=0;exitPerimeter=0;" parent="1" source="pg2_7ebm1C0G22UTHCx4-25" target="pg2_7ebm1C0G22UTHCx4-48" edge="1">
          <mxGeometry width="160" relative="1" as="geometry">
            <mxPoint x="564" as="sourcePoint" />
            <mxPoint x="616" y="-63.72" as="targetPoint" />
            <mxPoint as="offset" />
            <Array as="points">
              <mxPoint x="460" y="-140" />
            </Array>
          </mxGeometry>
        </mxCell>
        <mxCell id="pg2_7ebm1C0G22UTHCx4-48" value="Просмотр списка записей" style="ellipse;whiteSpace=wrap;html=1;" parent="1" vertex="1">
          <mxGeometry x="355" y="-270" width="120" height="80" as="geometry" />
        </mxCell>
        <mxCell id="pg2_7ebm1C0G22UTHCx4-53" value="&amp;lt;&amp;lt;include&amp;gt;&amp;gt;" style="html=1;verticalAlign=bottom;labelBackgroundColor=none;endArrow=open;endFill=0;dashed=1;rounded=0;exitX=0.241;exitY=0.038;exitDx=0;exitDy=0;exitPerimeter=0;" parent="1" source="pg2_7ebm1C0G22UTHCx4-27" target="pg2_7ebm1C0G22UTHCx4-54" edge="1">
          <mxGeometry x="-0.0101" width="160" relative="1" as="geometry">
            <mxPoint x="625" y="64" as="sourcePoint" />
            <mxPoint x="677" y="0.28000000000000114" as="targetPoint" />
            <mxPoint as="offset" />
          </mxGeometry>
        </mxCell>
        <mxCell id="pg2_7ebm1C0G22UTHCx4-54" value="Создание пространства" style="ellipse;whiteSpace=wrap;html=1;" parent="1" vertex="1">
          <mxGeometry x="486.04" y="-88" width="120" height="80" as="geometry" />
        </mxCell>
        <mxCell id="pg2_7ebm1C0G22UTHCx4-55" value="&amp;lt;&amp;lt;include&amp;gt;&amp;gt;" style="html=1;verticalAlign=bottom;labelBackgroundColor=none;endArrow=open;endFill=0;dashed=1;rounded=0;exitX=1;exitY=0;exitDx=0;exitDy=0;" parent="1" source="pg2_7ebm1C0G22UTHCx4-27" target="pg2_7ebm1C0G22UTHCx4-56" edge="1">
          <mxGeometry x="0.0032" width="160" relative="1" as="geometry">
            <mxPoint x="660" y="30" as="sourcePoint" />
            <mxPoint x="753" y="-19.72" as="targetPoint" />
            <mxPoint as="offset" />
            <Array as="points">
              <mxPoint x="640" />
              <mxPoint x="640" y="-50" />
            </Array>
          </mxGeometry>
        </mxCell>
        <mxCell id="pg2_7ebm1C0G22UTHCx4-56" value="Удаление пространства" style="ellipse;whiteSpace=wrap;html=1;" parent="1" vertex="1">
          <mxGeometry x="547" y="-168" width="120" height="80" as="geometry" />
        </mxCell>
        <mxCell id="pg2_7ebm1C0G22UTHCx4-57" value="&amp;lt;&amp;lt;include&amp;gt;&amp;gt;" style="html=1;verticalAlign=bottom;labelBackgroundColor=none;endArrow=open;endFill=0;dashed=1;rounded=0;exitX=0.95;exitY=0.238;exitDx=0;exitDy=0;entryX=0.5;entryY=1;entryDx=0;entryDy=0;exitPerimeter=0;" parent="1" source="pg2_7ebm1C0G22UTHCx4-27" target="pg2_7ebm1C0G22UTHCx4-58" edge="1">
          <mxGeometry x="0.0999" y="-9" width="160" relative="1" as="geometry">
            <mxPoint x="679" y="53" as="sourcePoint" />
            <mxPoint x="737" y="-132" as="targetPoint" />
            <mxPoint as="offset" />
            <Array as="points">
              <mxPoint x="660" y="10" />
            </Array>
          </mxGeometry>
        </mxCell>
        <mxCell id="pg2_7ebm1C0G22UTHCx4-58" value="Редактирование пространства" style="ellipse;whiteSpace=wrap;html=1;" parent="1" vertex="1">
          <mxGeometry x="650" y="-120" width="120" height="80" as="geometry" />
        </mxCell>
        <mxCell id="pg2_7ebm1C0G22UTHCx4-59" value="&amp;lt;&amp;lt;include&amp;gt;&amp;gt;" style="html=1;verticalAlign=bottom;labelBackgroundColor=none;endArrow=open;endFill=0;dashed=1;rounded=0;exitX=1;exitY=0.375;exitDx=0;exitDy=0;exitPerimeter=0;" parent="1" source="pg2_7ebm1C0G22UTHCx4-27" target="pg2_7ebm1C0G22UTHCx4-60" edge="1">
          <mxGeometry x="0.0032" width="160" relative="1" as="geometry">
            <mxPoint x="810" y="40" as="sourcePoint" />
            <mxPoint x="893" y="-41.72" as="targetPoint" />
            <mxPoint as="offset" />
          </mxGeometry>
        </mxCell>
        <mxCell id="pg2_7ebm1C0G22UTHCx4-60" value="Просмотр списка пространств" style="ellipse;whiteSpace=wrap;html=1;" parent="1" vertex="1">
          <mxGeometry x="707" y="-40" width="120" height="80" as="geometry" />
        </mxCell>
        <mxCell id="pg2_7ebm1C0G22UTHCx4-61" value="&amp;lt;&amp;lt;include&amp;gt;&amp;gt;" style="html=1;verticalAlign=bottom;labelBackgroundColor=none;endArrow=open;endFill=0;dashed=1;rounded=0;exitX=0.991;exitY=0.7;exitDx=0;exitDy=0;exitPerimeter=0;" parent="1" source="pg2_7ebm1C0G22UTHCx4-27" target="pg2_7ebm1C0G22UTHCx4-62" edge="1">
          <mxGeometry x="0.0032" width="160" relative="1" as="geometry">
            <mxPoint x="590" y="150" as="sourcePoint" />
            <mxPoint x="877" y="48.28" as="targetPoint" />
            <mxPoint as="offset" />
          </mxGeometry>
        </mxCell>
        <mxCell id="pg2_7ebm1C0G22UTHCx4-62" value="Поиск пространств по заданным критериям" style="ellipse;whiteSpace=wrap;html=1;" parent="1" vertex="1">
          <mxGeometry x="630" y="50" width="120" height="80" as="geometry" />
        </mxCell>
        <mxCell id="pg2_7ebm1C0G22UTHCx4-63" value="&amp;lt;&amp;lt;include&amp;gt;&amp;gt;" style="html=1;verticalAlign=bottom;labelBackgroundColor=none;endArrow=open;endFill=0;dashed=1;rounded=0;exitX=0.842;exitY=0.075;exitDx=0;exitDy=0;exitPerimeter=0;" parent="1" source="pg2_7ebm1C0G22UTHCx4-25" target="pg2_7ebm1C0G22UTHCx4-64" edge="1">
          <mxGeometry width="160" relative="1" as="geometry">
            <mxPoint x="509" y="82" as="sourcePoint" />
            <mxPoint x="711" y="-15.719999999999999" as="targetPoint" />
            <mxPoint as="offset" />
            <Array as="points">
              <mxPoint x="480" y="-80" />
            </Array>
          </mxGeometry>
        </mxCell>
        <mxCell id="pg2_7ebm1C0G22UTHCx4-64" value="Поиск записей по заданным критериям" style="ellipse;whiteSpace=wrap;html=1;" parent="1" vertex="1">
          <mxGeometry x="450" y="-222" width="120" height="80" as="geometry" />
        </mxCell>
        <mxCell id="pg2_7ebm1C0G22UTHCx4-65" value="Управление финансовым трекером" style="ellipse;whiteSpace=wrap;html=1;" parent="1" vertex="1">
          <mxGeometry x="460" y="240" width="120" height="80" as="geometry" />
        </mxCell>
        <mxCell id="pg2_7ebm1C0G22UTHCx4-66" value="" style="endArrow=none;html=1;rounded=0;entryX=1;entryY=0.3333333333333333;entryDx=0;entryDy=0;entryPerimeter=0;exitX=0;exitY=0.5;exitDx=0;exitDy=0;" parent="1" source="pg2_7ebm1C0G22UTHCx4-65" target="pg2_7ebm1C0G22UTHCx4-1" edge="1">
          <mxGeometry width="50" height="50" relative="1" as="geometry">
            <mxPoint x="520" y="280" as="sourcePoint" />
            <mxPoint x="450" y="290" as="targetPoint" />
          </mxGeometry>
        </mxCell>
        <mxCell id="pg2_7ebm1C0G22UTHCx4-68" value="&amp;lt;&amp;lt;include&amp;gt;&amp;gt;" style="html=1;verticalAlign=bottom;labelBackgroundColor=none;endArrow=open;endFill=0;dashed=1;rounded=0;exitX=0.5;exitY=1;exitDx=0;exitDy=0;" parent="1" source="pg2_7ebm1C0G22UTHCx4-65" target="pg2_7ebm1C0G22UTHCx4-69" edge="1">
          <mxGeometry x="-0.0062" width="160" relative="1" as="geometry">
            <mxPoint x="589.9999999999932" y="280" as="sourcePoint" />
            <mxPoint x="745.16" y="400" as="targetPoint" />
            <mxPoint as="offset" />
          </mxGeometry>
        </mxCell>
        <mxCell id="pg2_7ebm1C0G22UTHCx4-69" value="Управление транзакциями" style="ellipse;whiteSpace=wrap;html=1;" parent="1" vertex="1">
          <mxGeometry x="486.04" y="360" width="120" height="80" as="geometry" />
        </mxCell>
        <mxCell id="pg2_7ebm1C0G22UTHCx4-70" value="&amp;lt;&amp;lt;include&amp;gt;&amp;gt;" style="html=1;verticalAlign=bottom;labelBackgroundColor=none;endArrow=open;endFill=0;dashed=1;rounded=0;exitX=0;exitY=1;exitDx=0;exitDy=0;" parent="1" source="pg2_7ebm1C0G22UTHCx4-69" target="pg2_7ebm1C0G22UTHCx4-71" edge="1">
          <mxGeometry x="0.0043" width="160" relative="1" as="geometry">
            <mxPoint x="380" y="625" as="sourcePoint" />
            <mxPoint x="482.03999999999996" y="540" as="targetPoint" />
            <mxPoint as="offset" />
          </mxGeometry>
        </mxCell>
        <mxCell id="pg2_7ebm1C0G22UTHCx4-71" value="Создание транзакции" style="ellipse;whiteSpace=wrap;html=1;" parent="1" vertex="1">
          <mxGeometry x="355" y="480" width="120" height="80" as="geometry" />
        </mxCell>
        <mxCell id="pg2_7ebm1C0G22UTHCx4-72" value="&amp;lt;&amp;lt;include&amp;gt;&amp;gt;" style="html=1;verticalAlign=bottom;labelBackgroundColor=none;endArrow=open;endFill=0;dashed=1;rounded=0;" parent="1" source="pg2_7ebm1C0G22UTHCx4-69" target="pg2_7ebm1C0G22UTHCx4-73" edge="1">
          <mxGeometry x="0.0043" width="160" relative="1" as="geometry">
            <mxPoint x="628" y="420" as="sourcePoint" />
            <mxPoint x="606.04" y="532" as="targetPoint" />
            <mxPoint as="offset" />
          </mxGeometry>
        </mxCell>
        <mxCell id="pg2_7ebm1C0G22UTHCx4-73" value="Удаление&amp;nbsp;&lt;div&gt;транзакции&lt;/div&gt;" style="ellipse;whiteSpace=wrap;html=1;" parent="1" vertex="1">
          <mxGeometry x="486.04" y="480" width="120" height="80" as="geometry" />
        </mxCell>
        <mxCell id="pg2_7ebm1C0G22UTHCx4-74" value="&amp;lt;&amp;lt;include&amp;gt;&amp;gt;" style="html=1;verticalAlign=bottom;labelBackgroundColor=none;endArrow=open;endFill=0;dashed=1;rounded=0;" parent="1" source="pg2_7ebm1C0G22UTHCx4-69" target="pg2_7ebm1C0G22UTHCx4-75" edge="1">
          <mxGeometry x="0.0043" width="160" relative="1" as="geometry">
            <mxPoint x="738" y="428" as="sourcePoint" />
            <mxPoint x="716.04" y="540" as="targetPoint" />
            <mxPoint as="offset" />
          </mxGeometry>
        </mxCell>
        <mxCell id="pg2_7ebm1C0G22UTHCx4-75" value="Редактирование транзакции" style="ellipse;whiteSpace=wrap;html=1;" parent="1" vertex="1">
          <mxGeometry x="606.04" y="460" width="120" height="80" as="geometry" />
        </mxCell>
        <mxCell id="pg2_7ebm1C0G22UTHCx4-76" value="&amp;lt;&amp;lt;include&amp;gt;&amp;gt;" style="html=1;verticalAlign=bottom;labelBackgroundColor=none;endArrow=open;endFill=0;dashed=1;rounded=0;exitX=1;exitY=0.5;exitDx=0;exitDy=0;" parent="1" source="pg2_7ebm1C0G22UTHCx4-69" edge="1">
          <mxGeometry x="0.0043" width="160" relative="1" as="geometry">
            <mxPoint x="768" y="310" as="sourcePoint" />
            <mxPoint x="650" y="401" as="targetPoint" />
            <mxPoint as="offset" />
          </mxGeometry>
        </mxCell>
        <mxCell id="pg2_7ebm1C0G22UTHCx4-77" value="Просмотр списка транзакций" style="ellipse;whiteSpace=wrap;html=1;" parent="1" vertex="1">
          <mxGeometry x="650" y="362" width="120" height="80" as="geometry" />
        </mxCell>
        <mxCell id="_qJWkEBzdXzlcvWCyu-u-1" value="Гость" style="shape=umlActor;verticalLabelPosition=bottom;verticalAlign=top;html=1;outlineConnect=0;" parent="1" vertex="1">
          <mxGeometry x="160" y="520" width="30" height="60" as="geometry" />
        </mxCell>
        <mxCell id="_qJWkEBzdXzlcvWCyu-u-2" value="" style="endArrow=none;html=1;rounded=0;exitX=0;exitY=1;exitDx=0;exitDy=0;exitPerimeter=0;" parent="1" source="_qJWkEBzdXzlcvWCyu-u-1" target="_qJWkEBzdXzlcvWCyu-u-5" edge="1">
          <mxGeometry width="50" height="50" relative="1" as="geometry">
            <mxPoint x="95" y="570" as="sourcePoint" />
            <mxPoint x="140" y="550" as="targetPoint" />
          </mxGeometry>
        </mxCell>
        <mxCell id="_qJWkEBzdXzlcvWCyu-u-3" value="Аутентификация" style="ellipse;whiteSpace=wrap;html=1;" parent="1" vertex="1">
          <mxGeometry x="220" y="520" width="120" height="80" as="geometry" />
        </mxCell>
        <mxCell id="_qJWkEBzdXzlcvWCyu-u-4" value="" style="endArrow=none;html=1;rounded=0;exitX=1;exitY=1;exitDx=0;exitDy=0;exitPerimeter=0;entryX=0;entryY=0.5;entryDx=0;entryDy=0;" parent="1" source="_qJWkEBzdXzlcvWCyu-u-1" target="_qJWkEBzdXzlcvWCyu-u-3" edge="1">
          <mxGeometry width="50" height="50" relative="1" as="geometry">
            <mxPoint x="115" y="580" as="sourcePoint" />
            <mxPoint x="80" y="620" as="targetPoint" />
          </mxGeometry>
        </mxCell>
        <mxCell id="_qJWkEBzdXzlcvWCyu-u-5" value="Регистрация" style="ellipse;whiteSpace=wrap;html=1;" parent="1" vertex="1">
          <mxGeometry x="30" y="490" width="120" height="80" as="geometry" />
        </mxCell>
        <mxCell id="j5gEIoVvXTDwA1QoyBo_-1" value="" style="endArrow=none;html=1;rounded=0;exitX=0;exitY=1;exitDx=0;exitDy=0;exitPerimeter=0;entryX=0.758;entryY=0.063;entryDx=0;entryDy=0;entryPerimeter=0;" parent="1" source="pg2_7ebm1C0G22UTHCx4-1" target="pg2_7ebm1C0G22UTHCx4-13" edge="1">
          <mxGeometry width="50" height="50" relative="1" as="geometry">
            <mxPoint x="410" y="300" as="sourcePoint" />
            <mxPoint x="365" y="360" as="targetPoint" />
            <Array as="points">
              <mxPoint x="240" y="395" />
            </Array>
          </mxGeometry>
        </mxCell>
        <mxCell id="j5gEIoVvXTDwA1QoyBo_-2" value="" style="endArrow=none;html=1;rounded=0;entryX=0.425;entryY=0.025;entryDx=0;entryDy=0;entryPerimeter=0;exitX=0;exitY=1;exitDx=0;exitDy=0;exitPerimeter=0;" parent="1" source="pg2_7ebm1C0G22UTHCx4-1" target="pg2_7ebm1C0G22UTHCx4-15" edge="1">
          <mxGeometry width="50" height="50" relative="1" as="geometry">
            <mxPoint x="400" y="330" as="sourcePoint" />
            <mxPoint x="364" y="332" as="targetPoint" />
          </mxGeometry>
        </mxCell>
        <mxCell id="j5gEIoVvXTDwA1QoyBo_-4" value="" style="endArrow=none;html=1;rounded=0;exitX=0.5;exitY=1;exitDx=0;exitDy=0;entryX=0.5;entryY=0;entryDx=0;entryDy=0;entryPerimeter=0;" parent="1" source="pg2_7ebm1C0G22UTHCx4-13" target="_qJWkEBzdXzlcvWCyu-u-1" edge="1">
          <mxGeometry width="50" height="50" relative="1" as="geometry">
            <mxPoint x="198" y="480" as="sourcePoint" />
            <mxPoint x="152" y="512" as="targetPoint" />
          </mxGeometry>
        </mxCell>
        <mxCell id="j5gEIoVvXTDwA1QoyBo_-5" value="" style="endArrow=none;html=1;rounded=0;exitX=0.108;exitY=0.775;exitDx=0;exitDy=0;exitPerimeter=0;entryX=0.75;entryY=0.1;entryDx=0;entryDy=0;entryPerimeter=0;" parent="1" source="pg2_7ebm1C0G22UTHCx4-15" target="_qJWkEBzdXzlcvWCyu-u-1" edge="1">
          <mxGeometry width="50" height="50" relative="1" as="geometry">
            <mxPoint x="226" y="484" as="sourcePoint" />
            <mxPoint x="180" y="516" as="targetPoint" />
          </mxGeometry>
        </mxCell>
        <mxCell id="j5gEIoVvXTDwA1QoyBo_-6" value="Смена имени" style="ellipse;whiteSpace=wrap;html=1;" parent="1" vertex="1">
          <mxGeometry x="235" y="210" width="120" height="80" as="geometry" />
        </mxCell>
        <mxCell id="j5gEIoVvXTDwA1QoyBo_-7" value="&amp;lt;&amp;lt;include&amp;gt;&amp;gt;" style="html=1;verticalAlign=bottom;labelBackgroundColor=none;endArrow=open;endFill=0;dashed=1;rounded=0;exitX=1;exitY=0;exitDx=0;exitDy=0;entryX=0.433;entryY=0.975;entryDx=0;entryDy=0;entryPerimeter=0;" parent="1" source="pg2_7ebm1C0G22UTHCx4-6" target="j5gEIoVvXTDwA1QoyBo_-6" edge="1">
          <mxGeometry x="-0.0166" width="160" relative="1" as="geometry">
            <mxPoint x="228" y="312" as="sourcePoint" />
            <mxPoint x="209" y="303" as="targetPoint" />
            <mxPoint as="offset" />
          </mxGeometry>
        </mxCell>
      </root>
    </mxGraphModel>
  </diagram>
</mxfile>
